<svg width="960" height="960" version="1.1" xmlns="http://www.w3.org/2000/svg" desc="Created with imagetracer.js version 1.2.6" ><path fill="rgb(0,0,0)" stroke="rgb(0,0,0)" stroke-width="1" opacity="0" d="M 0 0 L 960 0 L 960 960 L 0 960 L 0 0 Z M 480 183 L 479 184 L 464 184 L 463 185 L 445 187 L 419 195 Q 389 207 368 226 Q 343 246 329 275 L 351 257 L 380 240 L 403 232 L 429 227 L 459 227 L 490 233 L 521 246 L 544 262 Q 573 286 589 323 L 617 305 L 636 296 L 643 294 Q 633 266 614 245 Q 592 219 561 202 L 545 195 L 523 188 L 500 184 L 480 183 Z M 336 286 L 335 287 L 324 287 L 305 291 L 286 298 Q 258 310 238 329 L 236 333 L 239 332 L 270 332 L 271 333 L 281 333 L 282 334 L 300 336 L 335 346 L 367 360 L 390 374 L 392 374 L 436 405 L 540 493 Q 567 516 598 535 L 634 554 L 660 564 L 675 567 L 679 569 L 698 571 L 699 572 L 711 572 L 712 573 L 750 572 L 779 566 L 804 556 L 819 547 L 835 534 L 835 533 L 844 524 L 856 506 L 856 504 L 843 513 L 826 521 L 805 527 Q 798 525 797 528 L 768 528 L 767 527 L 755 526 L 751 524 L 747 524 L 733 520 L 704 508 L 669 488 L 650 475 L 609 443 L 521 368 Q 487 341 449 318 L 412 300 L 388 292 L 363 287 L 336 286 Z M 704 316 L 703 317 L 687 318 L 674 321 L 646 331 L 622 344 L 601 359 L 600 361 L 624 351 L 651 345 L 679 345 L 699 349 Q 727 357 746 375 Q 760 388 770 405 L 780 427 L 786 454 L 786 481 L 784 493 L 794 493 L 800 491 L 805 491 L 813 488 L 817 488 L 853 475 L 854 474 L 856 464 L 856 428 L 854 424 L 854 419 L 851 408 L 846 395 L 837 378 L 824 361 Q 803 337 771 325 L 751 319 L 740 318 L 739 317 L 704 316 Z M 217 371 L 216 372 L 199 374 L 180 380 L 171 384 L 155 395 Q 134 412 123 439 L 116 463 L 115 482 L 114 483 L 114 498 L 116 506 L 125 487 L 131 479 Q 140 467 154 459 L 173 451 L 192 447 L 221 447 L 227 449 L 232 449 L 250 453 L 275 463 L 301 478 L 342 507 L 407 562 L 408 565 L 413 567 L 455 599 L 489 619 L 494 620 L 505 626 L 537 638 L 548 640 L 554 643 L 566 645 L 570 647 L 588 649 L 594 651 L 601 651 L 602 652 L 615 652 L 621 654 L 646 654 L 647 653 L 677 652 L 715 644 L 720 641 L 729 639 L 751 630 L 754 627 L 777 614 L 802 593 L 804 588 L 801 588 L 791 593 L 760 604 L 754 604 L 747 607 L 719 612 L 674 612 L 661 609 L 655 609 L 621 600 L 595 589 L 557 568 L 517 541 L 394 443 Q 367 422 337 404 Q 308 387 273 377 L 248 372 L 217 371 Z M 209 480 L 208 481 L 198 481 L 188 484 L 174 490 L 164 498 L 156 507 L 150 517 L 144 541 L 145 562 L 147 572 L 158 599 L 166 610 L 189 631 L 216 646 L 244 655 L 261 657 L 262 658 L 274 658 L 275 659 L 338 659 L 339 658 L 314 646 L 301 638 L 273 616 Q 274 613 272 614 L 253 593 L 241 573 L 233 552 L 231 542 L 231 533 L 230 532 L 231 515 L 233 513 L 235 502 L 242 489 L 246 485 L 245 483 L 235 481 L 209 480 Z " /><path fill="rgb(4,187,242)" stroke="rgb(4,187,242)" stroke-width="1" opacity="1" d="M 214.5 372 L 241.5 372 L 242.5 373 L 251.5 373 L 269.5 378 L 273.5 378 L 309.5 391 L 336.5 405 L 381.5 435 L 526 549.5 L 526 551 L 529 551 Q 527.9 553.7 530.5 553 L 533.5 559 L 534.5 556 L 538 557 L 540.5 563 L 544 564.5 Q 545.2 569.1 540 567 L 538.5 564 L 529 562 L 530.5 565 L 534 566.5 L 526 567 Q 527.5 570.8 524.5 570 L 522.5 572 L 515.5 574 L 497.5 586 L 494.5 586 Q 492.3 590 487 590 Q 488.7 594.1 484.5 593 Q 481.5 594.5 484.5 596 Q 486.8 595.3 486 597.5 L 482.5 599 L 479.5 596 L 471.5 597 Q 470.4 594.3 467 595 L 468 599 L 462.5 599 L 460.5 597 L 453.5 595 L 447.5 590 L 444 590 Q 445.5 586.2 442.5 587 L 437.5 585 L 414 568 Q 415.1 565.3 412.5 566 L 332.5 499 L 308.5 482 L 283.5 467 L 257.5 455 L 231.5 448 L 214.5 447 L 213.5 446 L 195.5 446 L 194.5 447 L 181.5 448 L 161.5 454 Q 143 462.5 131 477.5 Q 121.7 488.2 116.5 503 L 115 499.5 L 115 475.5 L 116 474.5 L 117 461.5 L 125 435.5 L 133 420.5 Q 140.8 408.3 151.5 399 L 154 397.5 L 155.5 395 L 178.5 381 L 181.5 381 L 193.5 376 L 214.5 372 Z " /><path fill="rgb(4,187,242)" stroke="rgb(4,187,242)" stroke-width="1" opacity="1" d="M 236.5 575 Q 239.1 574.2 238 577.5 L 240 581.5 L 244.5 588 L 250 590.5 L 258 602 Q 260.7 600.9 260 603.5 L 269 612.5 L 269 614 L 273 616.5 Q 272.3 618.8 274.5 618 Q 300.5 643 337 657.5 L 327.5 659 L 326.5 658 L 287.5 658 L 282.5 659 L 281.5 658 L 269.5 658 L 268.5 657 L 247.5 655 L 225.5 649 L 203.5 639 L 194.5 632 L 189 630 L 181.5 621 L 178 618.5 L 179 616.5 Q 176 615.5 177 610.5 L 179.5 610 Q 181.4 613.6 187.5 613 L 190 609.5 Q 188.5 603.5 191.5 602 L 198.5 601 L 203.5 598 L 207.5 598 L 212.5 594 L 215.5 594 L 219 592 L 221 587 L 224.5 586 L 227.5 587 L 232 586 Q 232.3 579.1 236.5 575 Z " /><path fill="rgb(4,187,242)" stroke="rgb(4,187,242)" stroke-width="1" opacity="1" d="M 171.5 606 L 172.5 608 Q 169.7 608.7 171.5 606 Z " /><path fill="rgb(184,184,185)" stroke="rgb(184,184,185)" stroke-width="1" opacity="0.996078431372549" d="M 480.5 183 L 482.5 184 L 499.5 184 L 526.5 189 L 553.5 199 Q 589.5 216 614 244.5 Q 632.8 265.6 643 294 L 637.5 295 L 616.5 305 L 588.5 323 Q 572.6 285.9 543.5 262 Q 520.2 241.8 486.5 232 L 459.5 227 L 427.5 227 L 415.5 230 L 409.5 230 L 379.5 240 L 354.5 254 L 329 275 L 344 250 Q 346.7 251.1 346 248.5 L 366.5 227 Q 388.5 207 418.5 195 L 450.5 186 L 463.5 185 L 464.5 184 L 479.5 184 L 480.5 183 Z " /><path fill="rgb(184,184,185)" stroke="rgb(184,184,185)" stroke-width="1" opacity="0.996078431372549" d="M 336.5 286 L 350.5 286 L 351.5 287 L 369.5 288 L 390.5 293 L 418.5 303 L 461.5 326 Q 493 346 521.5 369 L 637.5 466 Q 667.7 489.8 703.5 508 L 732.5 520 L 749.5 525 L 766.5 527 L 767.5 528 L 796.5 528 Q 798.2 525.3 804.5 527 L 825.5 521 L 842.5 513 L 855.5 504 L 856 505.5 L 844 523.5 L 835 532.5 L 835 534 L 818.5 547 L 803.5 556 L 778.5 566 L 749.5 572 L 711.5 573 L 710.5 572 L 698.5 572 L 684.5 569 L 678.5 569 L 674.5 567 L 659.5 564 L 633.5 554 L 594.5 533 Q 565.5 514.5 539.5 493 L 439.5 408 L 391.5 374 L 368.5 361 L 337.5 347 L 308.5 338 L 288.5 334 L 271.5 333 L 270.5 332 L 253.5 332 L 252.5 331 L 251.5 332 L 236.5 332 L 242.5 325 Q 263 307 290.5 296 L 318.5 288 L 335.5 287 L 336.5 286 Z " /><path fill="rgb(184,184,185)" stroke="rgb(184,184,185)" stroke-width="1" opacity="0.996078431372549" d="M 704.5 316 L 738.5 317 L 767.5 324 Q 801.4 336.6 824 360.5 L 837 377.5 L 846 394.5 L 851 407.5 L 856 428.5 L 856 462.5 L 854 473.5 L 852.5 475 L 816.5 488 L 812.5 488 L 804.5 491 L 799.5 491 L 793.5 493 L 784 493 L 786 480.5 L 786 453.5 L 780 426.5 L 770 404.5 Q 759.4 387.1 744.5 374 L 728.5 362 L 699.5 349 L 679.5 345 L 650.5 345 L 629.5 349 L 626.5 351 L 617.5 353 L 598.5 362 L 599.5 360 Q 620.9 341.9 648.5 330 L 666.5 323 L 687.5 318 L 703.5 317 L 704.5 316 Z " /><path fill="rgb(5,95,179)" stroke="rgb(5,95,179)" stroke-width="1" opacity="0.9764705882352941" d="M 482.5 183 L 486 183.5 L 482.5 184 L 482.5 183 Z " /><path fill="rgb(5,95,179)" stroke="rgb(5,95,179)" stroke-width="1" opacity="0.9764705882352941" d="M 346.5 260 L 345.5 262 L 346.5 260 Z " /><path fill="rgb(5,95,179)" stroke="rgb(5,95,179)" stroke-width="1" opacity="0.9764705882352941" d="M 237.5 329 L 236.5 331 L 237.5 329 Z " /><path fill="rgb(5,95,179)" stroke="rgb(5,95,179)" stroke-width="1" opacity="0.9764705882352941" d="M 216.5 371 L 236 371.5 L 216.5 372 L 216.5 371 Z " /><path fill="rgb(5,95,179)" stroke="rgb(5,95,179)" stroke-width="1" opacity="0.9764705882352941" d="M 209.5 372 L 214 372.5 L 209.5 373 L 209.5 372 Z " /><path fill="rgb(5,95,179)" stroke="rgb(5,95,179)" stroke-width="1" opacity="0.9764705882352941" d="M 242.5 372 L 248 372.5 L 242.5 373 L 242.5 372 Z " /><path fill="rgb(5,95,179)" stroke="rgb(5,95,179)" stroke-width="1" opacity="0.9764705882352941" d="M 252.5 373 L 255 373.5 L 252.5 374 L 252.5 373 Z " /><path fill="rgb(5,95,179)" stroke="rgb(5,95,179)" stroke-width="1" opacity="0.9764705882352941" d="M 198.5 374 L 202 374.5 L 198.5 375 L 198.5 374 Z " /><path fill="rgb(5,95,179)" stroke="rgb(5,95,179)" stroke-width="1" opacity="0.9764705882352941" d="M 256.5 374 L 260 374.5 L 256.5 375 L 256.5 374 Z " /><path fill="rgb(5,95,179)" stroke="rgb(5,95,179)" stroke-width="1" opacity="0.9764705882352941" d="M 194.5 375 L 197 375.5 L 194.5 376 L 194.5 375 Z " /><path fill="rgb(5,95,179)" stroke="rgb(5,95,179)" stroke-width="1" opacity="0.9764705882352941" d="M 261.5 375 L 273 377.5 L 269.5 378 L 261.5 376 L 261.5 375 Z " /><path fill="rgb(5,95,179)" stroke="rgb(5,95,179)" stroke-width="1" opacity="0.9764705882352941" d="M 190.5 376 L 193 376.5 L 187.5 378 L 187.5 377 L 190.5 376 Z " /><path fill="rgb(5,95,179)" stroke="rgb(5,95,179)" stroke-width="1" opacity="0.9764705882352941" d="M 274.5 378 L 279 379.5 L 276.5 380 L 274.5 378 Z " /><path fill="rgb(5,95,179)" stroke="rgb(5,95,179)" stroke-width="1" opacity="0.9764705882352941" d="M 182.5 379 L 184 379.5 L 179.5 381 L 179.5 380 L 182.5 379 Z " /><path fill="rgb(5,95,179)" stroke="rgb(5,95,179)" stroke-width="1" opacity="0.9764705882352941" d="M 283.5 381 L 291 383.5 L 289.5 384 L 283.5 382 L 283.5 381 Z " /><path fill="rgb(5,95,179)" stroke="rgb(5,95,179)" stroke-width="1" opacity="0.9764705882352941" d="M 175.5 382 L 174.5 384 L 165.5 389 L 167.5 386 L 175.5 382 Z " /><path fill="rgb(5,95,179)" stroke="rgb(5,95,179)" stroke-width="1" opacity="0.9764705882352941" d="M 302.5 388 L 306 389.5 L 304.5 390 L 302.5 388 Z " /><path fill="rgb(5,95,179)" stroke="rgb(5,95,179)" stroke-width="1" opacity="0.9764705882352941" d="M 163.5 389 L 162.5 391 L 156.5 395 L 158.5 392 L 163.5 389 Z " /><path fill="rgb(5,95,179)" stroke="rgb(5,95,179)" stroke-width="1" opacity="0.9764705882352941" d="M 310.5 391 L 315 393.5 L 313.5 394 L 310.5 391 Z " /><path fill="rgb(5,95,179)" stroke="rgb(5,95,179)" stroke-width="1" opacity="0.9764705882352941" d="M 154.5 395 L 154 396.5 L 152.5 399 L 142 408.5 L 133.5 420 L 135 417.5 Q 142.3 403.8 154.5 395 Z " /><path fill="rgb(5,95,179)" stroke="rgb(5,95,179)" stroke-width="1" opacity="0.9764705882352941" d="M 318.5 395 L 325 398.5 L 323.5 399 L 319.5 397 L 318.5 395 Z " /><path fill="rgb(5,95,179)" stroke="rgb(5,95,179)" stroke-width="1" opacity="0.9764705882352941" d="M 326.5 399 L 341 407.5 L 339.5 407 L 327.5 401 L 326.5 399 Z " /><path fill="rgb(5,95,179)" stroke="rgb(5,95,179)" stroke-width="1" opacity="0.9764705882352941" d="M 342.5 408 L 349 412.5 L 347.5 412 Q 342.9 410.8 342.5 408 Z " /><path fill="rgb(5,95,179)" stroke="rgb(5,95,179)" stroke-width="1" opacity="0.9764705882352941" d="M 352.5 414 L 354.5 417 L 352.5 414 Z " /><path fill="rgb(5,95,179)" stroke="rgb(5,95,179)" stroke-width="1" opacity="0.9764705882352941" d="M 356.5 417 L 366 423.5 L 364.5 423 L 357.5 419 L 356.5 417 Z " /><path fill="rgb(5,95,179)" stroke="rgb(5,95,179)" stroke-width="1" opacity="0.9764705882352941" d="M 131.5 423 L 131 424.5 L 128.5 429 L 129 427.5 L 131.5 423 Z " /><path fill="rgb(5,95,179)" stroke="rgb(5,95,179)" stroke-width="1" opacity="0.9764705882352941" d="M 367.5 424 L 373 428.5 L 370.5 427 L 367.5 424 Z " /><path fill="rgb(5,95,179)" stroke="rgb(5,95,179)" stroke-width="1" opacity="0.9764705882352941" d="M 374.5 429 L 381 434.5 L 377.5 432 L 374.5 429 Z " /><path fill="rgb(5,95,179)" stroke="rgb(5,95,179)" stroke-width="1" opacity="0.9764705882352941" d="M 126.5 432 L 127 433.5 L 125 434.5 L 126.5 432 Z " /><path fill="rgb(5,95,179)" stroke="rgb(5,95,179)" stroke-width="1" opacity="0.9764705882352941" d="M 382.5 435 L 462.5 499 L 505.5 531 L 516.5 541 L 576.5 580 L 607.5 595 L 640.5 606 L 673.5 612 L 718.5 612 L 746.5 607 L 753.5 604 L 759.5 604 L 790.5 593 L 800.5 588 L 804 588 L 801.5 593 L 776.5 614 L 753.5 627 L 750.5 630 L 728.5 639 L 719.5 641 L 714.5 644 L 676.5 652 L 646.5 653 L 645.5 654 L 620.5 654 L 614.5 652 L 601.5 652 L 600.5 651 L 593.5 651 L 587.5 649 L 569.5 647 L 565.5 645 L 553.5 643 L 547.5 640 L 536.5 638 L 504.5 626 L 493.5 620 L 488.5 619 L 454.5 599 L 412.5 567 L 408 565 L 406.5 562 L 342 507.5 L 344.5 509 Q 376.1 532.9 404.5 560 L 414 566 Q 412.9 568.7 415.5 568 L 437.5 585 L 444 587 Q 442.3 591.5 447.5 590 L 457.5 597 Q 461.8 596.3 462.5 599 L 468 599 L 467 595 L 473.5 597 Q 474.8 594.8 479.5 596 L 482.5 599 L 486 597.5 Q 486.8 595.3 484.5 596 Q 481.5 594.5 484.5 593 L 487 593 Q 485.3 588.9 489.5 590 L 515.5 574 L 526 570 L 526 567 L 533.5 567 L 532.5 565 L 529 563.5 Q 528.1 560.1 533.5 562 L 540 565.5 L 540 567 L 544 567 L 542.5 563 L 539 561.5 L 538 557 L 534.5 556 L 533.5 559 L 530.5 553 Q 527.9 553.7 529 551 L 526 551 L 526 549.5 L 453.5 493 L 407.5 455 L 385.5 439 L 382.5 435 Z " /><path fill="rgb(5,95,179)" stroke="rgb(5,95,179)" stroke-width="1" opacity="0.9764705882352941" d="M 124.5 436 L 125 437.5 L 123.5 441 L 123 438.5 L 124.5 436 Z " /><path fill="rgb(5,95,179)" stroke="rgb(5,95,179)" stroke-width="1" opacity="0.9764705882352941" d="M 121.5 445 L 122 446.5 L 120.5 450 L 120 447.5 L 121.5 445 Z " /><path fill="rgb(5,95,179)" stroke="rgb(5,95,179)" stroke-width="1" opacity="0.9764705882352941" d="M 195.5 446 L 214 446.5 L 195.5 447 L 195.5 446 Z " /><path fill="rgb(5,95,179)" stroke="rgb(5,95,179)" stroke-width="1" opacity="0.9764705882352941" d="M 186.5 447 L 191 447.5 L 186.5 448 L 186.5 447 Z " /><path fill="rgb(5,95,179)" stroke="rgb(5,95,179)" stroke-width="1" opacity="0.9764705882352941" d="M 221.5 447 L 236 449.5 L 232.5 450 L 221.5 448 L 221.5 447 Z " /><path fill="rgb(5,95,179)" stroke="rgb(5,95,179)" stroke-width="1" opacity="0.9764705882352941" d="M 181.5 448 L 184 448.5 L 181.5 449 L 181.5 448 Z " /><path fill="rgb(5,95,179)" stroke="rgb(5,95,179)" stroke-width="1" opacity="0.9764705882352941" d="M 177.5 449 L 180 449.5 L 173.5 451 L 173.5 450 L 177.5 449 Z " /><path fill="rgb(5,95,179)" stroke="rgb(5,95,179)" stroke-width="1" opacity="0.9764705882352941" d="M 237.5 450 L 240 450.5 L 237.5 451 L 237.5 450 Z " /><path fill="rgb(5,95,179)" stroke="rgb(5,95,179)" stroke-width="1" opacity="0.9764705882352941" d="M 169.5 451 L 172 451.5 L 167.5 453 L 167.5 452 L 169.5 451 Z " /><path fill="rgb(5,95,179)" stroke="rgb(5,95,179)" stroke-width="1" opacity="0.9764705882352941" d="M 118.5 454 L 119 456.5 L 118 456.5 L 118.5 454 Z " /><path fill="rgb(5,95,179)" stroke="rgb(5,95,179)" stroke-width="1" opacity="0.9764705882352941" d="M 161.5 454 L 163 454.5 Q 152.8 458.3 145.5 465 L 147.5 462 L 161.5 454 Z " /><path fill="rgb(5,95,179)" stroke="rgb(5,95,179)" stroke-width="1" opacity="0.9764705882352941" d="M 256.5 455 L 260 456.5 L 258.5 457 L 256.5 455 Z " /><path fill="rgb(5,95,179)" stroke="rgb(5,95,179)" stroke-width="1" opacity="0.9764705882352941" d="M 261.5 457 L 265 458.5 L 263.5 459 L 261.5 457 Z " /><path fill="rgb(5,95,179)" stroke="rgb(5,95,179)" stroke-width="1" opacity="0.9764705882352941" d="M 117.5 458 L 118 460.5 L 117 460.5 L 117.5 458 Z " /><path fill="rgb(5,95,179)" stroke="rgb(5,95,179)" stroke-width="1" opacity="0.9764705882352941" d="M 266.5 459 L 270 460.5 L 268.5 461 L 266.5 459 Z " /><path fill="rgb(5,95,179)" stroke="rgb(5,95,179)" stroke-width="1" opacity="0.9764705882352941" d="M 271.5 461 L 274 462.5 L 272.5 462 L 271.5 461 Z " /><path fill="rgb(5,95,179)" stroke="rgb(5,95,179)" stroke-width="1" opacity="0.9764705882352941" d="M 116.5 462 L 117 467.5 L 116 467.5 L 116.5 462 Z " /><path fill="rgb(5,95,179)" stroke="rgb(5,95,179)" stroke-width="1" opacity="0.9764705882352941" d="M 275.5 463 L 285 468.5 L 283.5 468 L 276.5 465 L 275.5 463 Z " /><path fill="rgb(5,95,179)" stroke="rgb(5,95,179)" stroke-width="1" opacity="0.9764705882352941" d="M 143.5 465 L 131.5 478 L 143.5 465 Z " /><path fill="rgb(5,95,179)" stroke="rgb(5,95,179)" stroke-width="1" opacity="0.9764705882352941" d="M 115.5 469 L 116 474.5 L 115 474.5 L 115.5 469 Z " /><path fill="rgb(5,95,179)" stroke="rgb(5,95,179)" stroke-width="1" opacity="0.9764705882352941" d="M 286.5 469 L 287.5 471 L 286.5 469 Z " /><path fill="rgb(5,95,179)" stroke="rgb(5,95,179)" stroke-width="1" opacity="0.9764705882352941" d="M 289.5 471 L 300 477.5 L 298.5 477 L 289.5 472 L 289.5 471 Z " /><path fill="rgb(5,95,179)" stroke="rgb(5,95,179)" stroke-width="1" opacity="0.9764705882352941" d="M 301.5 478 Q 323.1 490.4 341 506.5 L 337.5 504 L 303.5 481 L 301.5 478 Z " /><path fill="rgb(5,95,179)" stroke="rgb(5,95,179)" stroke-width="1" opacity="0.9764705882352941" d="M 130.5 479 L 128 482.5 L 125.5 486 L 127 483.5 L 130.5 479 Z " /><path fill="rgb(5,95,179)" stroke="rgb(5,95,179)" stroke-width="1" opacity="0.9764705882352941" d="M 208.5 480 L 234.5 481 L 244.5 483 L 246 484.5 L 242 488.5 L 235 501.5 L 233 512.5 L 231 514.5 L 230 531.5 L 231 532.5 L 231 541.5 L 233 551.5 L 241 572.5 L 253 592.5 L 271.5 614 Q 273.8 613.3 273 615.5 L 289 629.5 L 286.5 628 L 273 618 L 270.5 614 Q 268.3 614.8 269 612.5 L 260 603.5 L 260 602 Q 257.3 603.1 258 600.5 L 248.5 589 Q 243 588.6 241 584.5 L 239 580.5 Q 241.5 579 238 577.5 Q 239.1 574.2 236.5 575 Q 232.3 579.1 232 586 L 225.5 587 L 223.5 586 L 221 587 L 219 592 L 215.5 594 L 212.5 594 L 207.5 598 Q 200.7 597.2 198.5 601 L 193.5 601 L 190 603.5 Q 191.3 610.8 187.5 613 Q 181.4 613.6 179.5 610 L 177 610.5 Q 176 615.5 179 616.5 L 178 618.5 L 189 628.5 Q 188.3 630.8 190.5 630 L 203.5 639 L 217 645.5 L 215.5 646 L 188.5 631 L 166 609.5 L 158 598.5 L 147 571.5 L 145 561.5 L 144 540.5 L 150 516.5 L 156 506.5 L 163.5 498 L 173.5 490 L 187.5 484 L 197.5 481 L 207.5 481 L 208.5 480 Z M 172 606 Q 170 609 173 608 L 172 606 Z " /><path fill="rgb(5,95,179)" stroke="rgb(5,95,179)" stroke-width="1" opacity="0.9764705882352941" d="M 114.5 482 L 115 497.5 L 114 497.5 L 114.5 482 Z " /><path fill="rgb(5,95,179)" stroke="rgb(5,95,179)" stroke-width="1" opacity="0.9764705882352941" d="M 118.5 499 L 119 500.5 L 115.5 506 L 115 500.5 L 116 500.5 L 116.5 503 L 118.5 499 Z " /><path fill="rgb(5,95,179)" stroke="rgb(5,95,179)" stroke-width="1" opacity="0.9764705882352941" d="M 290.5 630 L 296 634.5 L 293.5 633 L 290.5 630 Z " /><path fill="rgb(5,95,179)" stroke="rgb(5,95,179)" stroke-width="1" opacity="0.9764705882352941" d="M 297.5 635 L 299.5 638 L 297.5 635 Z " /><path fill="rgb(5,95,179)" stroke="rgb(5,95,179)" stroke-width="1" opacity="0.9764705882352941" d="M 301.5 638 L 310 643.5 L 308.5 643 L 302.5 640 L 301.5 638 Z " /><path fill="rgb(5,95,179)" stroke="rgb(5,95,179)" stroke-width="1" opacity="0.9764705882352941" d="M 311.5 644 L 312.5 646 L 311.5 644 Z " /><path fill="rgb(5,95,179)" stroke="rgb(5,95,179)" stroke-width="1" opacity="0.9764705882352941" d="M 218.5 646 L 238 652.5 L 235.5 653 L 218.5 647 L 218.5 646 Z " /><path fill="rgb(5,95,179)" stroke="rgb(5,95,179)" stroke-width="1" opacity="0.9764705882352941" d="M 324.5 651 L 339 657.5 L 337.5 659 L 329.5 659 L 329.5 658 L 337 657.5 L 324.5 652 L 324.5 651 Z " /><path fill="rgb(5,95,179)" stroke="rgb(5,95,179)" stroke-width="1" opacity="0.9764705882352941" d="M 239.5 653 L 242 653.5 L 239.5 654 L 239.5 653 Z " /><path fill="rgb(5,95,179)" stroke="rgb(5,95,179)" stroke-width="1" opacity="0.9764705882352941" d="M 243.5 654 L 247 654.5 L 243.5 655 L 243.5 654 Z " /><path fill="rgb(5,95,179)" stroke="rgb(5,95,179)" stroke-width="1" opacity="0.9764705882352941" d="M 248.5 655 L 253 655.5 L 248.5 656 L 248.5 655 Z " /><path fill="rgb(5,95,179)" stroke="rgb(5,95,179)" stroke-width="1" opacity="0.9764705882352941" d="M 254.5 656 L 269 657.5 L 261.5 658 Q 260 655.5 254.5 657 L 254.5 656 Z " /><path fill="rgb(5,95,179)" stroke="rgb(5,95,179)" stroke-width="1" opacity="0.9764705882352941" d="M 274.5 658 L 282 658.5 L 274.5 659 L 274.5 658 Z " /><path fill="rgb(5,95,179)" stroke="rgb(5,95,179)" stroke-width="1" opacity="0.9764705882352941" d="M 287.5 658 L 327 658.5 L 287.5 659 L 287.5 658 Z " /></svg>